# xmcd
#
# Track frame offsets: 
#        150
#        14845
#        37565
#        53902
#        67722
#        90478
#        108268
#        133840
#        149100
#        177371
#        198654
#        229768
#        254445
#        280471
#
# Disc length: 3992 seconds
#
# Revision: 0
# Processed by: cddbd v1.5.2PL0 Copyright (c) Steve Scherf et al.
# Submitted via: ExactAudioCopyFreeDBPlugin 1.0
#
DISCID=cc0f960e
DTITLE=Various Artist - Jalapeno Funk Volume 4
DYEAR=2012
DGENRE=Funk
TTITLE0=DJ Moneyshot - Mellowdip Park
TTITLE1=Basement Freaks - Hit the Flame
TTITLE2=Tom Drummond - Keep it Moving
TTITLE3=The Beekeepers feat Mystro - Queen Bee
TTITLE4=Parris and Vanucci - Get Down On The Floor
TTITLE5=Basement Freaks - Down in the Basement (Ursula 1000 Remix)
TTITLE6=Kraak and Smaak - Real Pain (Gregor Salto Remix)
TTITLE7=Featurecast Feat Greg Blackman - Evil Eye
TTITLE8=Max Sedgeley - Something Special (Neighbour Remix)
TTITLE9=Kraak and Smaak feat Lex Empress - Hold Back Love (Neighbour and E
TTITLE9=lan B Remix)
TTITLE10=Smoove and Turrell - In Deep (DJ Friction Remix)
TTITLE11=D Steph - Getting It On
TTITLE12=Kraak and Smaak feat Romanthony - Let's Go Back (Hint Remix)
TTITLE13=Parker - Last Breath
EXTD=
EXTT0=
EXTT1=
EXTT2=
EXTT3=
EXTT4=
EXTT5=
EXTT6=
EXTT7=
EXTT8=
EXTT9=
EXTT10=
EXTT11=
EXTT12=
EXTT13=
PLAYORDER=
